Love for All and Sharing is the first step to solving all the problems of humanity.

Website I want to share. 
               
   http://www.scenetime.com
 
 
  Credit to EVERYONE for sharing and seeding back
 especially to SCENETIME.COM where i get all my 
 downloads.


 support www.scenetime.com to grow faster.

                             
                                                            
                                                   

.                 ..................................NFO:....................................
                                                     
                                                   
                                                         
                                                          
                                                           
                                                          
                                                          
                                                          
                                                           
                                                         
                                                          
                                                        
                                                      
                                     
                                                 
                                                   
                                             
                                              
                                                     
                                                      
                                                      
                                                      
                                                    
                                                     
                                                   
                                                     
                                                     
                                                      
                                                     
                                                      
                                                    
                 ARTiCHOKE                        
                                                
                      
                                                        
                                                      
                                                      
                                               
                                          
                                                   
                                            
                                                    
                                                       
                                                        
                                                      
                                                
                                                        
                                                 
                                              
                                                  
                                                
                                                  
                                        

      
                                
      SPRiNTER proudly presents...     
                                
      
 
 Greatest.Drives.Head.On.Sports.Cars.2004.DVDRip.XviD-SPRiNTER  http://www.allmovie.com/dvd/greatest-drives-head-on-sports-cars-125648
 Subtitles: N/A

 Date: 2010.09

 Director: Greatest Drives
 Genre: Documentary | Sports


 Plot: Thirteen elite cars are put through their paces at the Ty Croes circuit in Wales. 
 


      
                 
      Release notes     
                 
      

 Enjoy!


      
           
     Greetings    
           
      


NTX aAF FiCO HNR CiNEFiLE AEN HUMANiSM


      
           
      Details     
           
      


 Format                           : AVI
 Format/Info                      : Audio Video Interleave
 File size                        : 701 MiB
 Duration                         : 1h 19mn
 Overall bit rate                 : 1 238 Kbps
 Writing application              : VirtualDubMod 1.5.10.2 (build 2540/release)
 Writing library                  : VirtualDubMod build 2540/release
 
 Video
 ID                               : 0
 Format                           : MPEG-4 Visual
 Format profile                   : AdvancedSimple@L5
 Format settings, BVOP            : Yes
 Format settings, QPel            : No
 Format settings, GMC             : No warppoints
 Format settings, Matrix          : Default (H.263)
 Codec ID                         : XVID
 Codec ID/Hint                    : XviD
 Duration                         : 1h 19mn
 Bit rate                         : 1 064 Kbps
 Width                            : 576 pixels
 Height                           : 432 pixels
 Display aspect ratio             : 4:3
 Frame rate                       : 25.000 fps
 Resolution                       : 24 bits
 Colorimetry                      : 4:2:0
 Scan type                        : Progressive
 Bits/(Pixel*Frame)               : 0.171
 Stream size                      : 603 MiB (86%)
 Writing library                  : XviD 1.2.1 (UTC 2008-12-04)
 
 Audio
 ID                               : 1
 Format                           : MPEG Audio
 Format version                   : Version 1
 Format profile                   : Layer 3
 Codec ID                         : 55
 Codec ID/Hint                    : MP3
 Duration                         : 1h 19mn
 Bit rate mode                    : Variable
 Bit rate                         : 161 Kbps
 Channel(s)                       : 2 channels
 Sampling rate                    : 48.0 KHz
 Resolution                       : 16 bits
 Stream size                      : 91.2 MiB (13%)
 Alignment                        : Aligned on interleaves
 Interleave, duration             : 24 ms (0.60 video frame)
 Interleave, preload duration     : 496 ms
 Writing library                  : LAME3.89 (alpha)